<svg xmlns="http://www.w3.org/2000/svg" width="400" height="120" viewBox="0 0 400 120" role="img" aria-labelledby="t">
  <title id="t">mainsail: Mainsail is the popular web interface for managing and controlling 3D printers with Klipper.</title>
  <style>
    text { font-family: 'Segoe UI', Ubuntu, Sans-Serif; }
    .title { fill: #ffffff; font-size: 16px; font-weight: 600; }
    .desc { fill: #9e9e9e; font-size: 12px; }
    .stat { fill: #9e9e9e; font-size: 12px; }
  </style>
  <rect x="0.5" y="0.5" width="399" height="119" rx="6" fill="#1e1e1e" stroke="#2d2d2d"/>
  <g transform="translate(25,20)"><path d="M2 2.5A2.5 2.5 0 0 1 4.5 0h8.75a.75.75 0 0 1 .75.75v12.5a.75.75 0 0 1-.75.75h-2.5a.75.75 0 0 1 0-1.5h1.75v-2h-8a1 1 0 0 0-.714 1.7.75.75 0 1 1-1.072 1.05A2.495 2.495 0 0 1 2 11.5Zm10.5-1h-8a1 1 0 0 0-1 1v6.708A2.486 2.486 0 0 1 4.5 9h8ZM5 12.25a.25.25 0 0 1 .25-.25h3.5a.25.25 0 0 1 .25.25v3.25a.25.25 0 0 1-.4.2l-1.45-1.087a.249.249 0 0 0-.3 0L5.4 15.7a.25.25 0 0 1-.4-.2Z" fill="#D41216"/></g>
  <text x="50" y="33" class="title">mainsail</text>
  <text x="25" y="60" class="desc"><tspan x="25" dy="0">Mainsail is the popular web interface for managing</tspan><tspan x="25" dy="16">and controlling 3D printers with Klipper.</tspan></text>
  <circle cx="30" cy="100" r="5" fill="#41b883"/><text x="41" y="104" class="stat">Vue</text>
  <g transform="translate(86,92)"><path d="M8 .25a.75.75 0 0 1 .673.418l1.882 3.815 4.21.612a.75.75 0 0 1 .416 1.279l-3.046 2.97.719 4.192a.751.751 0 0 1-1.088.791L8 12.347l-3.766 1.98a.75.75 0 0 1-1.088-.79l.72-4.194L.818 6.374a.75.75 0 0 1 .416-1.28l4.21-.611L7.327.668A.75.75 0 0 1 8 .25Z" fill="#D41216"/></g><text x="108" y="104" class="stat">2.2k</text>
  <g transform="translate(160,92)"><path d="M5 5.372v.878c0 .414.336.75.75.75h4.5a.75.75 0 0 0 .75-.75v-.878a2.25 2.25 0 1 1 1.5 0v.878a2.25 2.25 0 0 1-2.25 2.25h-1.5v2.128a2.251 2.251 0 1 1-1.5 0V8.5h-1.5A2.25 2.25 0 0 1 3.5 6.25v-.878a2.25 2.25 0 1 1 1.5 0ZM5 3.25a.75.75 0 1 0-1.5 0 .75.75 0 0 0 1.5 0Zm6.75.75a.75.75 0 1 0 0-1.5.75.75 0 0 0 0 1.5Zm-3 8.75a.75.75 0 1 0-1.5 0 .75.75 0 0 0 1.5 0Z" fill="#D41216"/></g><text x="182" y="104" class="stat">576</text>
</svg>
